<svg width="168" height="56" viewBox="0 0 168 56" fill="none" xmlns="http://www.w3.org/2000/svg">
<path d="M40.3085 40.8642C40.3533 40.9404 40.4016 41.0148 40.4546 41.0865C40.6768 41.3396 40.9966 41.4891 41.4136 41.5354L41.4482 41.6666L37.0334 42.8251C34.2068 43.5667 31.5324 43.8791 29.01 43.7622C26.4954 43.6745 24.1696 43.1792 22.0328 42.276C21.1883 43.8057 20.3025 45.2372 19.3754 46.5705C18.4559 47.9331 17.4795 49.1391 16.4468 50.1887C15.4509 51.2598 14.4236 52.1524 13.365 52.8662C12.2774 53.5875 11.1655 54.0975 10.0291 54.3957C8.4847 54.8009 7.29689 54.7854 6.46611 54.3493C5.92643 54.0825 5.52508 53.7522 5.26036 53.3597C5.28611 53.373 5.31158 53.3873 5.3378 53.4004C6.34515 53.9291 7.69412 53.9071 9.28361 53.49C10.4826 53.1754 11.6482 52.6394 12.7792 51.8892L12.7823 51.887C13.8753 51.15 14.9294 50.2331 15.9459 49.1413L15.9463 49.1417C17.0028 48.068 17.9974 46.8375 18.9318 45.4536L18.9322 45.454C19.7863 44.2257 20.604 42.9157 21.387 41.5257C23.4655 42.3417 25.7079 42.7899 28.1105 42.8737C30.6927 42.9926 33.4194 42.6721 36.2879 41.9195L40.3085 40.8642Z" fill="#F1AA1F"/>
<path d="M8.88111 48.9624C9.33679 48.9673 9.83438 49.0195 10.3734 49.1194C10.0553 49.182 9.80516 49.29 9.62311 49.4432C9.44997 49.4428 9.33754 49.4035 9.26436 49.3548L9.23811 49.3373L9.21011 49.3229C8.9925 49.2123 8.91465 49.0936 8.88461 48.9794C8.88318 48.974 8.88233 48.9681 8.88111 48.9624Z" fill="#F1AA1F"/>
<path d="M16.8926 39.067C17.5995 39.6008 18.3454 40.0821 19.1322 40.5081C19.0907 40.5749 19.0482 40.6409 19.0066 40.7072C18.2603 40.2168 17.5557 39.6702 16.8926 39.067Z" fill="#F1AA1F"/>
<path d="M87.4119 35.9669C87.4004 36.2075 87.4515 36.4061 87.5646 36.5623C86.924 36.7125 86.2967 36.8934 85.6834 37.1052C85.0986 37.3486 84.5002 37.5609 83.8883 37.7427C83.2749 37.9545 82.6338 38.1201 81.9646 38.2388C81.3255 38.3589 80.6446 38.4017 79.9224 38.367C78.8598 38.316 78.0144 38.0412 77.3853 37.544C77.877 37.7107 78.423 37.8052 79.0163 37.8337C79.7754 37.8701 80.4982 37.8253 81.1824 37.6967L81.1819 37.6963C81.7886 37.5885 82.375 37.4443 82.9402 37.2619L83.1817 37.1809C83.798 36.997 84.4014 36.7831 84.9912 36.5382C85.5826 36.3346 86.1875 36.1604 86.8055 36.0154L87.4202 35.871C87.4167 35.9023 87.4135 35.9343 87.4119 35.9669Z" fill="#F1AA1F"/>
<path d="M146.688 37.7519L146.835 37.2395L146.843 37.2115C147.021 37.5334 147.272 37.8058 147.596 38.0279L147.559 38.1583L139.914 35.9647L139.951 35.8343C139.966 35.8337 139.98 35.8321 139.995 35.8312L146.688 37.7519Z" fill="#F1AA1F"/>
<path d="M29.7205 22.1961C29.672 22.2032 29.6221 22.2105 29.5709 22.218C28.954 25.0895 28.1604 27.8826 27.1909 30.5974C26.3683 32.9009 25.4392 35.187 24.4058 37.4561C24.1504 37.3255 23.8977 37.1879 23.6485 37.0418C24.8344 34.5018 25.8893 31.9398 26.812 29.3558C27.7487 26.733 28.5212 24.0379 29.1312 21.2712C29.253 21.2535 29.3644 21.2371 29.4655 21.2227L29.7205 22.1961Z" fill="#F1AA1F"/>
<path d="M117.482 36.9202C117.69 37.0777 117.915 37.2071 118.157 37.3069L118.151 37.4421L108.898 36.998L108.904 36.8629C109.136 36.7859 109.348 36.6772 109.54 36.5391L117.482 36.9202Z" fill="#F1AA1F"/>
<path d="M153.985 15.634C154.479 15.7761 154.915 15.9546 155.296 16.1669L152.11 15.2525L151.262 18.2061C151.097 19.3181 151.177 20.32 151.499 21.2117C151.34 21.0354 151.197 20.8407 151.07 20.6264L150.977 20.4605C150.523 19.5591 150.37 18.4975 150.549 17.2506L151.239 14.8457L153.985 15.634Z" fill="#F1AA1F"/>
<path d="M92.8216 35.2122C93.004 35.408 93.2102 35.5753 93.4411 35.7131L92.7595 36.7211C91.8153 36.2837 90.798 36.1143 89.7075 36.2127L89.714 36.0771C89.7213 35.9259 89.7014 35.7865 89.6572 35.658C90.3628 35.6873 91.0272 35.848 91.6548 36.1388L92.066 36.3295L92.8216 35.2122Z" fill="#F1AA1F"/>
<path d="M148.877 23.0785C149.086 23.4185 149.323 23.7415 149.585 24.0485L147.161 32.497C146.696 34.1185 146.486 35.3431 146.53 36.1707C146.54 36.2695 146.554 36.3655 146.572 36.4586C146.14 36.1291 145.89 35.6777 145.826 35.0617C145.789 34.3268 145.979 33.1783 146.438 31.5783L148.877 23.0785Z" fill="#F1AA1F"/>
<path d="M87.6884 34.359C87.8954 34.369 88.0222 34.4361 88.1167 34.5402L88.1285 34.5533L88.1417 34.5655C88.2406 34.6609 88.2929 34.7666 88.3005 34.9103C88.0967 34.9459 87.9189 35.0315 87.7672 35.1693C87.6189 35.304 87.5177 35.4684 87.4618 35.6619L87.1153 35.1837C87.0894 35.1479 87.0565 35.0769 87.0637 34.9265C87.0736 34.7196 87.1408 34.5927 87.2448 34.4982C87.3488 34.4037 87.4815 34.3491 87.6884 34.359Z" fill="#F1AA1F"/>
<path d="M137.878 35.1619L137.955 34.7563C138.004 34.8228 138.055 34.8867 138.109 34.9479L138.018 35.2642L138.698 35.4589C138.704 35.4628 138.71 35.4673 138.716 35.4712L138.69 35.6042L131.011 34.1425L131.036 34.0095C131.149 33.9893 131.257 33.9588 131.359 33.9207L137.878 35.1619Z" fill="#F1AA1F"/>
<path d="M79.5347 34.3551C79.7088 34.544 79.8177 34.7717 79.862 35.0385C79.7913 35.0374 79.7201 35.0358 79.6485 35.0324C79.58 35.0291 79.5044 35.0211 79.4219 35.0083C79.4866 34.8123 79.5238 34.603 79.5343 34.384C79.5348 34.3744 79.5344 34.3646 79.5347 34.3551Z" fill="#F1AA1F"/>
<path d="M130.088 15.7364L126.882 22.7832L125.837 22.5846L129.921 13.6075L130.088 15.7364Z" fill="#F1AA1F"/>
<path d="M116.156 3.59667L116.15 3.73186C115.538 3.9136 115.097 4.29964 114.827 4.88992C114.589 5.45155 114.445 6.25917 114.394 7.31236C114.36 8.0345 114.364 8.89418 114.406 9.89142L115.477 30.9347C115.533 32.0942 115.655 33.0896 115.843 33.9207C115.463 32.9914 115.216 31.6435 115.128 29.8436V29.8423L114.058 8.80336C114.016 7.81661 114.012 6.97332 114.046 6.27198C114.095 5.24514 114.235 4.5119 114.436 4.03548C114.53 3.83319 114.647 3.66606 114.789 3.53104L116.156 3.59667Z" fill="#F1AA1F"/>
<path d="M135.382 8.75436L137.022 30.5944C137.099 31.946 137.237 32.9802 137.434 33.6971C137.158 33.4374 136.932 33.0978 136.764 32.6642C136.556 32.0116 136.402 30.9674 136.318 29.4984L136.317 29.494L136.317 29.4892L134.751 8.63404L135.382 8.75436Z" fill="#F1AA1F"/>
<path d="M50.4869 31.4645C50.7888 31.6824 51.1354 31.8233 51.5273 31.8854L51.5492 32.0193L43.7035 33.3213L43.6812 33.1874C44.032 33.002 44.31 32.7574 44.5172 32.455L50.4869 31.4645Z" fill="#F1AA1F"/>
<path d="M93.8773 14.2905C93.8989 14.4308 93.9228 14.5702 93.9495 14.7083C94.0125 15.0338 94.0836 15.3558 94.163 15.6743C93.9545 16.8997 93.7501 18.122 93.5487 19.341C93.1537 21.9159 92.7272 24.5195 92.269 27.1517C91.8196 29.6032 91.6825 31.512 91.8582 32.8777C91.8701 32.9696 91.8839 33.0595 91.8989 33.1476C91.7122 32.7691 91.5783 32.3055 91.506 31.7437C91.3409 30.4601 91.4663 28.6157 91.9125 26.1822L91.9134 26.1774C92.3717 23.5439 92.7986 20.9387 93.1939 18.3623C93.4175 17.0091 93.645 15.6516 93.8773 14.2905Z" fill="#F1AA1F"/>
<path d="M123.673 32.4581L123.772 31.9344L123.782 31.8815C123.918 32.2447 124.161 32.5403 124.51 32.7674L124.485 32.9004L117.781 31.6247L117.807 31.4917C117.925 31.472 118.041 31.4433 118.154 31.4072L123.673 32.4581Z" fill="#F1AA1F"/>
<path d="M108.813 15.8979L101.495 31.9375L100.955 31.8666C100.987 31.6587 101.011 31.4522 101.028 31.2475L108.736 14.3552L108.813 15.8979Z" fill="#F1AA1F"/>
<path d="M130.946 27.4019L130.969 27.6942L125.135 26.5842L124.727 27.5187C124.038 29.0435 123.679 30.2018 123.651 30.9938C123.647 31.1052 123.65 31.2128 123.659 31.3162L123.564 31.255C123.14 30.9791 122.926 30.5761 122.948 29.9473C122.972 29.2663 123.291 28.1884 123.976 26.6722L123.978 26.6691L123.979 26.666L124.217 26.1214L130.946 27.4019Z" fill="#F1AA1F"/>
<path d="M68.6318 28.6545C68.8415 28.6348 69.0363 28.6515 69.2198 28.7013L69.2491 28.7092L69.2793 28.7135C69.3692 28.7273 69.5084 28.7874 69.6927 28.9835L69.8817 29.1847C69.8605 29.1862 69.8392 29.1875 69.8179 29.1895C69.338 29.2346 68.8502 29.3557 68.3544 29.5535C67.8558 29.7214 67.3433 29.9059 66.8175 30.1065C66.3217 30.3044 65.7794 30.4916 65.1909 30.6679C64.6351 30.8713 64.0125 31.0056 63.3227 31.0704C61.775 31.2157 60.3882 30.9586 59.1617 30.3008C60.084 30.5555 61.0764 30.6348 62.1362 30.5353C62.8564 30.4676 63.5187 30.3268 64.119 30.1092C64.7161 29.93 65.2697 29.7388 65.7789 29.5356C66.2959 29.3384 66.7991 29.1578 67.2882 28.9931L67.3022 28.9883L67.3158 28.983C67.7693 28.8021 68.2077 28.6943 68.6318 28.6545Z" fill="#F1AA1F"/>
<path d="M25.1701 26.456C25.0331 27.2395 24.6574 27.9453 24.0435 28.5735C23.4512 29.165 22.7326 29.5716 21.8875 29.7933C21.1008 29.9997 20.4245 29.9745 19.8589 29.718C19.4738 29.5105 19.187 29.2302 18.9979 28.8776C19.6462 29.1025 20.3704 29.0901 21.142 28.8877C22.0742 28.6431 22.8775 28.1907 23.5395 27.5297L23.5417 27.5275L23.5439 27.5249C23.7333 27.331 23.9028 27.1284 24.0532 26.9185C24.2174 26.9487 24.3793 26.9438 24.5392 26.9019C24.8015 26.833 25.012 26.6844 25.1701 26.456Z" fill="#F1AA1F"/>
<path d="M47.3544 6.74273C46.6806 7.09887 46.259 7.68776 46.09 8.50979C45.9459 9.29718 46.012 10.5231 46.2882 12.1874L48.7592 27.0769C48.9493 28.2219 49.1676 29.1455 49.4142 29.8475C49.2584 29.7085 49.1177 29.5376 48.992 29.3317C48.6438 28.6835 48.3216 27.5655 48.0492 25.924L45.5777 11.0346C45.3036 9.38274 45.252 8.23583 45.3774 7.54467C45.4286 7.29805 45.5054 7.08254 45.6066 6.89498L47.3321 6.60886L47.3544 6.74273Z" fill="#F1AA1F"/>
<path d="M71.1015 13.8635C70.6985 14.0829 70.4203 14.5026 70.2667 15.1222C70.1103 15.7118 70.0969 16.6965 70.2265 18.0762L71.3167 29.6839C71.1076 29.4616 70.8944 29.3235 70.6771 29.2692L69.5212 16.961C69.392 15.5848 69.4158 14.6834 69.5457 14.1934L69.547 14.189L69.5479 14.185C69.5778 14.0647 69.6121 13.9582 69.6494 13.8639L71.0888 13.7287L71.1015 13.8635Z" fill="#F1AA1F"/>
<path d="M162.091 17.0249C162.195 17.1622 162.294 17.3035 162.386 17.4492C163.336 18.9442 163.542 20.6328 163.001 22.515C162.744 23.4127 162.343 24.2068 161.8 24.8972C161.266 25.5587 160.626 26.096 159.881 26.509C159.173 26.9013 158.382 27.1446 157.509 27.2387C156.635 27.3329 155.721 27.243 154.765 26.9688C154.236 26.8167 153.741 26.6216 153.281 26.3847C153.315 26.3948 153.349 26.4056 153.383 26.4154C154.396 26.7061 155.38 26.8053 156.33 26.7028C157.268 26.6017 158.128 26.3391 158.903 25.9096C159.708 25.4635 160.402 24.8815 160.979 24.1666L160.981 24.164L160.984 24.1609C161.572 23.413 162.002 22.5559 162.278 21.5963C162.749 19.9557 162.693 18.423 162.091 17.0249Z" fill="#F1AA1F"/>
<path d="M21.1679 9.39923C21.7212 9.25405 22.2852 9.20462 22.8623 9.25092L22.8662 9.25136H22.8702C23.4568 9.28963 23.9846 9.44983 24.4618 9.72867L24.4771 9.73742L24.4933 9.74529C24.9562 9.97596 25.3851 10.317 25.78 10.7782C25.7244 10.7473 25.6682 10.7177 25.6115 10.6894C25.0598 10.367 24.4509 10.1838 23.7854 10.1404C23.1492 10.0893 22.5252 10.1443 21.9134 10.3049C20.5438 10.6642 19.3753 11.3755 18.4085 12.439C17.4341 13.4733 16.6821 14.761 16.1519 16.3017C15.6509 17.8347 15.386 19.5549 15.357 21.4624C15.3571 22.904 15.5113 24.3858 15.8194 25.9079C15.8112 25.8771 15.8026 25.8464 15.7945 25.8155C15.2696 23.8152 15.0089 21.8909 15.0087 20.0414C15.0376 18.1846 15.2955 16.5237 15.7748 15.0539C16.2839 13.5744 17.0005 12.3555 17.9159 11.3837L17.922 11.3767C18.8206 10.3884 19.8996 9.73201 21.1679 9.39923Z" fill="#F1AA1F"/>
<path d="M26.5465 21.8929C26.4604 22.3182 26.3667 22.7467 26.2665 23.1787C25.6719 23.3972 25.1359 23.6621 24.6587 23.9737C24.2692 24.2378 23.9489 24.5424 23.6975 24.8872C23.6455 24.9226 23.5882 24.9485 23.5234 24.9655C23.4123 24.9946 23.2954 24.9916 23.1589 24.944C23.1158 24.9206 23.0703 24.8784 23.0382 24.7559C22.9507 24.4226 22.9969 24.1582 23.1524 23.919L23.1537 23.9172C23.3757 23.5726 23.6787 23.2645 24.0733 22.9963C24.5136 22.7094 25.0133 22.4623 25.5744 22.2565L25.5849 22.2525L25.5945 22.2486C25.9131 22.1168 26.2306 21.9982 26.5465 21.8929Z" fill="#F1AA1F"/>
<path d="M61.6147 6.61936C62.5944 6.52734 63.4816 6.72952 64.2931 7.23229C63.8167 7.13225 63.3193 7.10572 62.8008 7.15442C60.9112 7.33194 59.5439 8.39846 58.6988 10.3539C57.8809 12.2765 57.6337 14.9625 57.9577 18.4117C58.1923 20.9097 58.6827 22.9445 59.4281 24.5166C59.4178 24.5025 59.4073 24.4885 59.397 24.4742L59.2995 24.3346C58.2446 22.7596 57.5469 20.4313 57.2524 17.2961C56.9319 13.8838 57.1854 11.3005 57.9529 9.49636C58.7323 7.69494 59.947 6.77603 61.6147 6.61936Z" fill="#F1AA1F"/>
<path d="M35.9138 20.0397C35.5961 20.3722 35.4107 20.7946 35.3582 21.3067C35.3261 21.6194 35.3329 21.9454 35.3774 22.2845L35.1438 21.3929C35.019 20.9173 34.9729 20.4805 34.9968 20.0795C35.3218 20.059 35.6276 20.0457 35.9138 20.0397Z" fill="#F1AA1F"/>
<path d="M101.487 17.4125C101.625 17.8084 101.749 18.2171 101.859 18.6384L101.765 18.8435C101.712 18.4111 101.636 17.9951 101.536 17.5962C101.52 17.5347 101.503 17.4735 101.487 17.4125Z" fill="#F1AA1F"/>
<path d="M32.6728 7.15442C32.3471 8.04963 32.0736 9.0248 31.852 10.0795C31.6228 11.1052 31.3942 12.193 31.1665 13.3429C30.9678 14.4851 30.7663 15.6751 30.5614 16.9124C30.4735 17.4438 30.3796 17.979 30.2823 18.5185C30.0772 18.5481 29.8701 18.5801 29.661 18.6139C29.8589 17.5879 30.041 16.5761 30.2062 15.5785C30.4101 14.3469 30.6109 13.1625 30.8086 12.0255C31.0356 10.8795 31.2634 9.79583 31.4915 8.77492L31.492 8.77186L31.4929 8.76836C31.5797 8.35485 31.6749 7.95448 31.7777 7.56742C32.0957 7.45817 32.3576 7.29984 32.5625 7.09011L32.6728 7.15442Z" fill="#F1AA1F"/>
<path d="M87.0116 9.43598C86.8207 10.2713 86.5297 10.9962 86.1384 11.6108C85.7785 12.1967 85.3476 12.6888 84.846 13.0869C84.3744 13.4865 83.8626 13.779 83.3108 13.9637C82.7591 14.1483 82.2122 14.2272 81.6706 14.2012C80.8 14.1594 80.0967 13.9127 79.5592 13.4627C79.9303 13.5785 80.333 13.6472 80.7645 13.6679C81.3768 13.6973 81.9897 13.6073 82.5994 13.4032C83.214 13.1975 83.7797 12.8735 84.296 12.4385L84.2965 12.439C84.8503 11.9994 85.3218 11.4591 85.7118 10.8242L85.7114 10.8237C85.8239 10.6464 85.928 10.4612 86.0246 10.269C86.0699 10.2509 86.1152 10.2313 86.1602 10.2095C86.53 10.0463 86.8137 9.7884 87.0116 9.43598Z" fill="#F1AA1F"/>
<path d="M68.9555 11.7959L68.8252 11.8536C68.6488 11.3663 68.448 10.9144 68.2236 10.4978L67.3753 4.83917C67.5826 4.77792 67.7449 4.66565 67.8618 4.50011L68.9555 11.7959Z" fill="#F1AA1F"/>
<path d="M90.295 2.29204C91.5261 1.96228 92.9157 1.84286 94.4692 1.94161C94.3489 2.11434 94.2203 2.281 94.0847 2.44254C92.9898 2.45917 91.9741 2.5925 91.0379 2.84329C89.5419 3.22387 88.2649 3.7505 87.2072 4.42354C86.1796 5.09802 85.3897 5.84429 84.8377 6.66223C84.3214 7.40101 84.0333 8.07135 83.9745 8.67298C83.9129 8.63395 83.8548 8.58572 83.7995 8.52686C83.6819 8.37504 83.5994 8.13759 83.6179 7.75204C83.6416 7.25987 83.8729 6.64703 84.3936 5.90186L84.3962 5.89836L84.3984 5.89486C84.902 5.14868 85.6346 4.44976 86.6157 3.80536C87.6155 3.16972 88.8366 2.66314 90.2885 2.29379L90.292 2.29292L90.295 2.29204Z" fill="#F1AA1F"/>
<path d="M98.5012 1.41223C98.92 1.47938 99.3163 1.56703 99.6899 1.67517L99.7306 1.76748C98.812 2.05516 98.1228 2.59534 97.6625 3.38754C97.2023 4.17977 96.9473 5.08747 96.8982 6.11054C96.863 6.84438 96.9177 7.53864 97.0614 8.19348C96.9867 7.98704 96.9158 7.77884 96.8492 7.56873C96.6084 6.80842 96.5065 5.97693 96.55 5.07017C96.5955 4.12229 96.8301 3.29954 97.2425 2.58954C97.5442 2.07036 97.959 1.67876 98.5012 1.41223Z" fill="#F1AA1F"/>
<path fill-rule="evenodd" clip-rule="evenodd" d="M31.7921 5.7335C31.4664 6.62873 31.193 7.60385 30.9714 8.65862C30.7422 9.68427 30.5136 10.7721 30.2858 11.9219C30.0872 13.0642 29.8856 14.2542 29.6808 15.4915C29.4759 16.7287 29.2458 17.9881 28.9904 19.2697C30.1497 19.059 31.2478 18.9112 32.2843 18.8261C33.3424 18.7042 34.2588 18.6351 35.0331 18.6187C34.7155 18.9513 34.53 19.3736 34.4775 19.8857C34.425 20.3978 34.4756 20.9454 34.6285 21.5281L39.1583 38.7932C39.2424 39.1137 39.3809 39.4047 39.574 39.6656C39.7961 39.9187 40.1159 40.0681 40.533 40.1144L40.5675 40.2457L36.1527 41.4042C33.3262 42.1458 30.6517 42.4581 28.1294 42.3413C25.6148 42.2536 23.289 41.7583 21.1521 40.8551C20.3077 42.3848 19.4219 43.8163 18.4948 45.1496C17.5753 46.5121 16.5989 47.7181 15.5661 48.7677C14.5702 49.8388 13.5429 50.7315 12.4844 51.4453C11.3968 52.1666 10.2848 52.6766 9.14845 52.9748C7.60404 53.38 6.41623 53.3645 5.58545 52.9284C4.76239 52.5215 4.25916 51.9682 4.07564 51.2689C3.89979 50.5987 4.03055 49.9101 4.46808 49.2035C4.87647 48.5046 5.59066 48.0212 6.61051 47.7536C7.01846 47.6466 7.4671 47.5759 7.95626 47.541C8.42394 47.5429 8.93623 47.5954 9.49276 47.6985C9.01891 47.7917 8.69566 47.9852 8.5237 48.2795C8.35178 48.5737 8.30051 48.852 8.36926 49.1143C8.44572 49.4056 8.64565 49.6338 8.96908 49.7981C9.27099 49.9991 9.68408 50.0306 10.2085 49.893C11.8403 49.4648 13.4866 48.3792 15.147 46.6354C16.8074 44.8916 18.3868 42.7794 19.8851 40.2995C17.5185 39.114 15.5078 37.4459 13.8533 35.2949C12.1988 33.144 10.9739 30.5533 10.1788 27.5227C9.52123 25.0167 9.27064 22.6374 9.42714 20.3849C9.60514 18.0958 10.1406 16.04 11.0328 14.2175C11.9541 12.3873 13.1964 10.8308 14.7598 9.5485C16.3447 8.22945 18.2154 7.28716 20.3716 6.72137C21.4789 6.43085 22.544 6.27595 23.5667 6.25675C24.5818 6.20842 25.5319 6.20814 26.4166 6.25631C27.2937 6.27535 28.098 6.31367 28.8294 6.37093C29.5531 6.39906 30.1774 6.34406 30.7019 6.20644C31.1097 6.0994 31.4364 5.92041 31.6819 5.66919L31.7921 5.7335ZM8.0337 47.8293C7.86139 47.8634 7.69598 47.9208 7.53889 48.0013C6.83151 48.3548 6.3359 49.2278 6.56764 50.0719C6.80068 50.9525 7.78825 51.3262 8.56745 51.3337C10.2035 51.3504 11.6828 50.6468 13.0282 49.879C13.1761 49.7923 13.3269 49.7009 13.4801 49.6056C13.3158 49.68 13.155 49.7508 12.998 49.8182C11.5737 50.4154 10.08 50.9984 8.58014 50.978C7.85547 50.9634 7.06754 50.6773 6.83845 49.9879C6.60273 49.3157 6.93679 48.4831 7.57301 48.059C7.71395 47.9634 7.8675 47.8862 8.0337 47.8293ZM29.861 20.6299C29.6203 20.662 29.23 20.7177 28.6903 20.7971C28.0733 23.6686 27.2798 26.4617 26.3103 29.1765C25.3407 31.8914 24.2249 34.5825 22.9625 37.2497C24.6408 38.3043 26.4614 39.0105 28.4238 39.3676C30.3939 39.7539 32.5094 39.7437 34.7698 39.3374L29.861 20.6299ZM31.9623 21.6423C32.5267 24.2752 33.1376 26.8965 33.795 29.5059C34.4525 32.1155 35.1568 34.7135 35.9073 37.2996C35.9906 37.5868 36.0743 37.874 36.1588 38.161C36.0973 37.8682 36.0352 37.5754 35.9725 37.2829C35.408 34.6501 34.7972 32.0288 34.1398 29.4193C33.4823 26.8098 32.7784 24.2117 32.028 21.6257C31.9446 21.3384 31.8605 21.0512 31.776 20.7642C31.8375 21.057 31.8996 21.3498 31.9623 21.6423ZM15.6116 10.3491C15.3328 10.7841 15.0788 11.2162 14.8355 11.6699C12.6428 15.7232 12.0214 20.5522 12.7465 25.1042C13.5098 29.6101 15.2722 34.2234 18.8146 37.237C19.2184 37.547 19.664 37.8242 20.1336 38.0031C19.6732 37.8022 19.2436 37.5082 18.8566 37.1845C15.4807 34.0587 13.8538 29.494 13.0973 25.0496C12.3864 20.5593 12.8856 15.8279 14.8955 11.7006C15.119 11.2386 15.3531 10.7965 15.6116 10.3491ZM22.9048 8.71943C22.2685 8.6684 21.6445 8.72341 21.0327 8.88393C19.6631 9.24329 18.4947 9.95459 17.5279 11.0181C16.5535 12.0524 15.8014 13.3401 15.2713 14.8807C14.7703 16.4137 14.5053 18.1341 14.4763 20.0415C14.4765 21.9413 14.744 23.9111 15.2791 25.9508C15.8832 28.2529 16.7476 30.2998 17.8718 32.0916C19.0251 33.8757 20.3793 35.358 21.9348 36.5383C23.1848 34.0613 24.2692 31.4874 25.1881 28.8169C26.1069 26.1465 26.7896 23.5848 27.236 21.1317C26.6241 21.2923 26.0091 21.5005 25.3911 21.7561C24.7945 21.9749 24.2566 22.2403 23.778 22.5527C23.3286 22.8575 22.9713 23.2163 22.7057 23.6286C22.4616 24.0041 22.4005 24.4249 22.5228 24.8912C22.5916 25.1534 22.7328 25.3343 22.9459 25.4341C23.188 25.5262 23.4255 25.542 23.6586 25.4809C23.9208 25.4121 24.1313 25.2635 24.2895 25.0351C24.1524 25.8185 23.7767 26.5244 23.1629 27.1526C22.5706 27.744 21.8519 28.1507 21.0069 28.3724C20.2201 28.5788 19.5438 28.5536 18.9782 28.2971C18.4342 28.0039 18.0855 27.566 17.9326 26.9833C17.8026 26.488 17.8293 25.9359 18.0122 25.3274C18.1875 24.6896 18.5819 24.0564 19.1956 23.4282C19.8018 22.7708 20.6351 22.1475 21.6951 21.5579C22.7842 20.9606 24.1593 20.4441 25.8203 20.0082L27.4373 19.5839C27.6115 18.2301 27.6885 16.9797 27.6678 15.8327C27.6687 14.649 27.5467 13.5907 27.3021 12.6582C27.0804 11.8132 26.7397 11.1084 26.2801 10.5438C25.8205 9.97924 25.3041 9.55412 24.7309 9.2685C24.1791 8.94609 23.5702 8.76285 22.9048 8.71943Z" fill="#FBFBFD"/>
<path fill-rule="evenodd" clip-rule="evenodd" d="M86.9058 0.716247C89.0453 0.125296 91.5746 -0.0998 94.4933 0.0403099C95.2757 0.0778691 96.0267 0.144081 96.746 0.238935C97.4968 0.305138 98.1846 0.428285 98.8093 0.60906L98.85 0.70181C97.9315 0.989471 97.2421 1.52934 96.7819 2.32143C96.3216 3.11363 96.0667 4.0214 96.0176 5.04444C95.9714 6.00736 96.0794 6.90245 96.3413 7.72937C96.6032 8.55628 96.9265 9.35612 97.3117 10.1286C97.727 10.9026 98.1724 11.678 98.6478 12.4548C99.1533 13.233 99.6116 14.0542 100.022 14.9184C100.433 15.7826 100.765 16.7188 101.019 17.7262C101.272 18.7337 101.368 19.8693 101.308 21.1331L106.415 9.93219C106.75 9.22446 107.091 8.41147 107.437 7.49312C107.784 6.54465 107.978 5.64899 108.018 4.80644C108.046 4.23478 107.964 3.73322 107.774 3.30187C107.613 2.87194 107.283 2.52416 106.783 2.25887L106.79 2.12325L115.275 2.531L115.269 2.66618C114.657 2.84793 114.216 3.23397 113.946 3.82425C113.708 4.38587 113.564 5.19354 113.514 6.24669C113.479 6.96883 113.483 7.82851 113.525 8.82575L114.596 29.8691C114.687 31.7434 114.95 33.189 115.384 34.2051C115.817 35.2212 116.449 35.8999 117.277 36.2412L117.27 36.3764L108.017 35.9324L108.023 35.7967C108.82 35.5333 109.378 34.9116 109.696 33.9317C110.014 32.9517 110.128 31.5246 110.037 29.6503L109.159 12.1451L100.614 30.8718L100.075 30.8009C100.25 29.6633 100.196 28.5748 99.9144 27.5359C99.6626 26.4983 99.2897 25.4696 98.7957 24.4506C98.3018 23.4317 97.7625 22.4105 97.1783 21.3872C96.594 20.3639 96.0574 19.2975 95.5678 18.1882C95.0796 17.0489 94.7145 15.8551 94.4728 14.6069C94.2311 13.3587 94.2059 12.0003 94.3971 10.5316L93.9906 10.5119C93.534 13.1139 93.0932 15.7019 92.6681 18.2753C92.273 20.8502 91.8465 23.4538 91.3884 26.086C90.939 28.5374 90.8019 30.4459 90.9776 31.8116C91.1533 33.1772 91.6809 34.1226 92.5605 34.6474L91.8788 35.6554C90.9347 35.218 89.9174 35.0486 88.8268 35.1471L88.8334 35.0114C88.8493 34.6804 88.742 34.4037 88.5114 34.1815C88.3109 33.9608 88.0448 33.8426 87.7138 33.8267C87.3829 33.8108 87.1072 33.9032 86.8865 34.1036C86.6658 34.3041 86.5472 34.5698 86.5313 34.9007C86.5197 35.1415 86.5708 35.34 86.684 35.4962C86.0434 35.6464 85.4161 35.8277 84.8027 36.0396C84.218 36.2829 83.6195 36.4953 83.0076 36.677C82.3943 36.8888 81.7531 37.0545 81.084 37.1731C80.4448 37.2932 79.7639 37.336 79.0417 37.3013C77.9284 37.2478 77.0528 36.9491 76.4154 36.4058C75.7766 35.8925 75.4762 35.2447 75.5137 34.4624C75.5441 33.8305 75.7467 33.3726 76.1223 33.0891C76.5279 32.8069 76.9567 32.6767 77.4081 32.6984C77.8293 32.7186 78.1987 32.8724 78.5167 33.1591C78.8648 33.4472 79.0269 33.8471 79.0023 34.3587C78.9821 34.7799 78.8448 35.1201 78.5911 35.3794C78.7687 35.4482 78.9478 35.4871 79.1283 35.4958C79.3074 35.5345 79.4723 35.5572 79.6227 35.5644C81.5485 35.6569 83.1804 34.9664 84.5179 33.4924C85.854 32.0485 86.752 29.9951 87.2116 27.3329L89.8528 11.897C90.0596 10.7307 90.1807 9.77097 90.2168 9.01869C90.2529 8.26651 90.2211 7.6769 90.121 7.24987C90.0524 6.79423 89.9026 6.45532 89.6721 6.23312C89.4715 6.01237 89.2085 5.83388 88.8833 5.69762L88.9327 5.60925C90.2625 5.55244 91.5039 5.14458 92.6563 4.38556C93.8387 3.62801 94.7445 2.66108 95.374 1.48493C93.4239 1.27069 91.6849 1.36796 90.1573 1.77718C88.6612 2.15777 87.3843 2.68481 86.3265 3.35787C85.2989 4.03236 84.509 4.7786 83.957 5.59656C83.4065 6.38443 83.1159 7.09442 83.0855 7.72631C83.0624 8.20777 83.1649 8.58974 83.3926 8.87212C83.6218 9.12436 83.901 9.27368 84.2305 9.31968C84.5901 9.36711 84.9399 9.30845 85.2796 9.14381C85.6493 8.98061 85.9331 8.7227 86.131 8.37031C85.9401 9.20558 85.6491 9.93057 85.2577 10.5451C84.8978 11.131 84.467 11.6231 83.9653 12.0212C83.4937 12.4209 82.9819 12.7129 82.4301 12.8976C81.8784 13.0822 81.3316 13.1616 80.79 13.1356C79.6766 13.0821 78.8355 12.695 78.2669 11.974C77.6983 11.253 77.4386 10.3808 77.4877 9.35775C77.5368 8.33469 77.8905 7.25085 78.5486 6.10625C79.2369 4.96301 80.267 3.92639 81.6387 2.99693C83.0419 2.03886 84.7977 1.27857 86.9058 0.716247ZM111.763 11.4013C111.821 14.7271 111.927 18.0511 112.08 21.3724C112.234 24.6936 112.435 28.013 112.685 31.3299C112.713 31.6984 112.741 32.067 112.77 32.4354C112.765 32.0659 112.759 31.6963 112.753 31.3268C112.695 28.0011 112.589 24.6775 112.435 21.3562C112.281 18.0349 112.08 14.7156 111.831 11.3987C111.803 11.0301 111.774 10.6612 111.745 10.2927C111.751 10.6622 111.757 11.0319 111.763 11.4013ZM91.6308 10.3251C91.0832 13.6197 90.5831 16.9211 90.1306 20.2287C89.6781 23.5364 89.2731 26.8507 88.9156 30.1714C88.8759 30.5403 88.8369 30.91 88.7984 31.2791C88.8604 30.9132 88.9217 30.5466 88.9826 30.1806C89.5301 26.8859 90.0302 23.5845 90.4828 20.2769C90.9353 16.9692 91.3402 13.6549 91.6977 10.3342C91.7374 9.96533 91.7764 9.59601 91.815 9.22694C91.7529 9.59282 91.6916 9.95901 91.6308 10.3251ZM84.8876 2.356C84.694 2.41076 84.503 2.4806 84.318 2.5625C82.6447 3.32725 81.4293 4.95092 80.9514 6.7415C80.7304 7.63189 80.6736 8.66716 81.2209 9.49469C81.7839 10.3468 82.893 10.4748 83.7606 10.3097C83.9675 10.274 84.1476 10.23 84.3547 10.1715C84.1425 10.2069 83.9594 10.2286 83.7527 10.2428C82.8716 10.3139 81.8892 10.0896 81.4585 9.34068C81.0245 8.6094 81.0861 7.66942 81.2961 6.829C81.7515 5.13993 82.7978 3.54403 84.3486 2.62243C84.5214 2.52284 84.7018 2.43313 84.8876 2.356Z" fill="#FBFBFD"/>
<path fill-rule="evenodd" clip-rule="evenodd" d="M156.554 13.2314C158.668 13.838 160.2 14.8886 161.15 16.3836C162.1 17.8785 162.306 19.5671 161.766 21.4494C161.508 22.3471 161.107 23.1411 160.565 23.8316C160.03 24.493 159.39 25.0304 158.645 25.4433C157.937 25.8356 157.146 26.0789 156.273 26.1731C155.4 26.2672 154.485 26.1773 153.53 25.9031C152.371 25.5707 151.381 25.0355 150.558 24.2979C149.744 23.5315 149.139 22.6368 148.742 21.6143L145.925 31.4309C145.46 33.0525 145.25 34.2774 145.295 35.1051C145.376 35.912 145.731 36.5312 146.36 36.9622L146.323 37.0926L138.678 34.899L138.715 34.7686C139.476 34.7364 140.092 34.3957 140.56 33.7466C141.066 33.0768 141.551 31.9308 142.016 30.3092L146.179 15.8017C146.644 14.1801 146.836 12.9657 146.754 12.1586C146.71 11.331 146.373 10.7015 145.745 10.2704L145.782 10.14L156.554 13.2314ZM148.35 14.8492C147.433 17.8613 146.562 20.8859 145.738 23.923C144.914 26.9601 144.136 30.0102 143.405 33.0724C143.323 33.4127 143.242 33.7535 143.162 34.094C143.265 33.7597 143.367 33.425 143.469 33.0904C144.386 30.0783 145.257 27.0534 146.081 24.0162C146.905 20.979 147.683 17.929 148.415 14.8667C148.496 14.5265 148.577 14.1861 148.657 13.8456C148.554 14.18 148.452 14.5146 148.35 14.8492ZM158.249 15.9859C158.402 16.1397 158.533 16.3195 158.641 16.5069C159.541 18.2519 159.325 20.4378 158.339 22.0505C157.338 23.7283 155.233 24.3445 153.283 24.1098C153.073 24.0898 152.855 24.0623 152.631 24.0258C152.85 24.0855 153.065 24.1355 153.274 24.1767C155.186 24.6138 157.551 24.0722 158.639 22.2404C159.706 20.5007 159.795 18.1651 158.698 16.4706C158.57 16.2906 158.418 16.1221 158.249 15.9859ZM150.026 17.1404C149.826 18.4934 149.986 19.6836 150.506 20.7104C151.056 21.7455 151.909 22.4291 153.068 22.7614C154.168 23.0772 155.118 22.9896 155.917 22.4981C156.753 21.9859 157.317 21.223 157.608 20.2095C157.932 19.0802 157.774 18.0475 157.134 17.1116C156.493 16.1756 155.493 15.5124 154.132 15.1218L150.874 14.1869L150.026 17.1404Z" fill="#FBFBFD"/>
<path fill-rule="evenodd" clip-rule="evenodd" d="M134.146 7.68868L135.786 29.5287C135.871 31.0168 136.028 32.1206 136.26 32.8392C136.526 33.5339 136.933 34.0557 137.48 34.4051L137.455 34.5385L129.775 33.0768L129.8 32.9438C130.466 32.8253 130.947 32.3952 131.241 31.6541C131.541 30.8832 131.636 29.6591 131.526 27.9821L131.445 26.9549L123.899 25.5186L123.491 26.4531C122.802 27.9779 122.444 29.1361 122.415 29.9281C122.387 30.7201 122.674 31.3115 123.274 31.7017L123.249 31.8347L116.546 30.559L116.571 30.426C117.173 30.3259 117.707 30.0136 118.175 29.4893C118.678 28.941 119.265 27.9487 119.937 26.5126L126.848 11.9578C127.613 10.3554 128.045 9.13411 128.143 8.29418C128.271 7.4599 128.103 6.89129 127.64 6.58837L127.665 6.45494L134.146 7.68868ZM132.521 10.7074C132.742 14.0813 133.011 17.4506 133.328 20.8154C133.645 24.1803 134.008 27.5409 134.42 30.8967C134.466 31.2696 134.513 31.6427 134.56 32.0154C134.536 31.6405 134.512 31.2654 134.488 30.8906C134.267 27.5168 133.998 24.147 133.682 20.7822C133.365 17.4173 133 14.0567 132.588 10.7009C132.542 10.3281 132.496 9.95531 132.449 9.58262C132.472 9.95755 132.497 10.3326 132.521 10.7074ZM125.072 22.9815L131.287 24.1645L130.291 11.5089L125.072 22.9815Z" fill="#FBFBFD"/>
<path fill-rule="evenodd" clip-rule="evenodd" d="M46.1185 5.67662C45.4447 6.03276 45.0231 6.62209 44.8541 7.44412C44.71 8.23151 44.7761 9.4575 45.0523 11.1217L47.5233 26.0112C47.7995 27.6754 48.1356 28.8717 48.5313 29.6C48.9518 30.2936 49.5383 30.7003 50.291 30.8197L50.3133 30.9532L42.4676 32.2556L42.4453 32.1217C43.119 31.7656 43.5279 31.1937 43.672 30.4063C43.8409 29.5843 43.7876 28.3412 43.5115 26.6771L41.04 11.7876C40.7638 10.1233 40.4153 8.9441 39.9948 8.25043C39.5991 7.52222 39.025 7.09845 38.2724 6.97906L38.2501 6.84518L46.0962 5.54318L46.1185 5.67662ZM42.6111 9.76331C42.9312 12.4369 43.2987 15.1033 43.7136 17.7621C44.1285 20.421 44.5912 23.073 45.1009 25.7172C45.1575 26.0108 45.2146 26.3044 45.2724 26.5979C45.238 26.3007 45.203 26.0033 45.1674 25.7062C44.8472 23.0326 44.4798 20.3663 44.0649 17.7074C43.65 15.0486 43.1877 12.3969 42.678 9.75281C42.6214 9.45907 42.5639 9.16524 42.5061 8.87169C42.5405 9.16892 42.5755 9.46626 42.6111 9.76331Z" fill="#FBFBFD"/>
<path fill-rule="evenodd" clip-rule="evenodd" d="M60.7673 3.39506C62.057 3.27393 63.1058 3.32634 63.9138 3.553C64.7518 3.77687 65.411 3.86626 65.8909 3.82118C66.2208 3.79018 66.4657 3.66128 66.6259 3.43443L67.7196 10.7302L67.5893 10.7879C67.0172 9.20771 66.1923 7.99922 65.1152 7.16237C64.0681 6.32271 62.8846 5.96478 61.5649 6.08875C59.6753 6.26627 58.308 7.33279 57.4629 9.28819C56.645 11.2108 56.3978 13.8968 56.7218 17.3461C57.0204 20.5254 57.7329 22.9549 58.859 24.6344C59.9822 26.2838 61.3988 27.0284 63.1084 26.8678C63.6182 26.8199 64.1223 26.7119 64.6208 26.5441C65.1466 26.3434 65.5784 26.106 65.9158 25.8322L65.1677 17.8689C64.9254 15.2894 64.152 13.8187 62.8472 13.4571L62.8345 13.3224L69.8529 12.6631L69.8656 12.7978C69.4626 13.0172 69.1844 13.4369 69.0308 14.0565C68.8744 14.6461 68.861 15.6308 68.9906 17.0105L70.0808 28.6182C69.8455 28.368 69.605 28.2243 69.3594 28.1869C69.111 28.1195 68.8519 28.0981 68.582 28.1234C68.1021 28.1685 67.6143 28.29 67.1185 28.4879C66.6199 28.6557 66.1074 28.8402 65.5816 29.0409C65.0858 29.2387 64.5435 29.4259 63.955 29.6022C63.3992 29.8056 62.7766 29.9399 62.0868 30.0047C59.4174 30.2554 57.2255 29.3114 55.5116 27.1727C53.795 25.0041 52.7437 21.8651 52.3577 17.756C51.9548 13.4669 52.4833 10.0736 53.9432 7.57625C55.4031 5.07893 57.6779 3.68525 60.7673 3.39506ZM58.9233 5.20193C58.5717 5.47713 58.2494 5.7524 57.9301 6.05287C55.012 8.70832 53.608 12.8558 53.9961 16.7878C54.3879 20.6807 55.9055 24.6866 59.0112 27.1653C59.3788 27.4172 59.7695 27.6218 60.1968 27.7004C59.7748 27.5984 59.4015 27.3766 59.051 27.1111C56.1144 24.5212 54.7365 20.5667 54.3501 16.7581C53.9793 12.9115 55.214 8.8894 57.9774 6.101C58.2803 5.78678 58.5867 5.49544 58.9233 5.20193ZM66.2575 14.4144C66.3264 16.1208 66.4431 17.8228 66.6075 19.52C66.7719 21.2173 66.9842 22.9105 67.2441 24.5985C67.2729 24.786 67.3024 24.9737 67.3325 25.1611C67.326 24.9714 67.3187 24.7815 67.311 24.5919C67.2421 22.8854 67.1254 21.1831 66.961 19.4859C66.7966 17.7887 66.5847 16.0958 66.3249 14.4078C66.296 14.2204 66.2666 14.033 66.2365 13.8456C66.243 14.0353 66.2499 14.2248 66.2575 14.4144Z" fill="#FBFBFD"/>
</svg>
